<svg width="89.99999999999999" height="60" xmlns="http://www.w3.org/2000/svg">

 <g>
  <title>Layer 1</title>
  <g id="svg_1">
   <path id="svg_5" fill="#ecf0f1" d="m2.414,29.8535l13.293,-13.293c0.391,-0.391 0.391,-1.023 0,-1.414s-1.023,-0.391 -1.414,0l-14,14c-0.391,0.391 -0.391,1.023 0,1.414l14,14c0.195,0.195 0.451,0.293 0.707,0.293s0.512,-0.098 0.707,-0.293c0.391,-0.391 0.391,-1.023 0,-1.414l-13.293,-13.293z"/>
   <path id="svg_6" fill="#ecf0f1" d="m89.899112,29.197915l-14,-14c-0.391,-0.391 -1.023,-0.391 -1.414,0s-0.391,1.023 0,1.414l13.293,13.293l-13.293,13.293c-0.391,0.391 -0.391,1.023 0,1.414c0.195,0.195 0.451,0.293 0.707,0.293s0.512,-0.098 0.707,-0.293l14,-14c0.391,-0.391 0.391,-1.023 0,-1.414z"/>
   <g stroke="null" id="svg_22">
    <path stroke="null" id="svg_2" fill="#ecf0f1" d="m26.333334,26c-2.206,0 -4,1.794 -4,4s1.794,4 4,4s4,-1.794 4,-4s-1.794,-4 -4,-4z"/>
    <path stroke="null" id="svg_3" fill="#ecf0f1" d="m45,26c-2.206,0 -4,1.794 -4,4s1.794,4 4,4s4,-1.794 4,-4s-1.794,-4 -4,-4z"/>
    <path stroke="null" id="svg_4" fill="#ecf0f1" d="m67.111111,30c0,-2.206 -1.794,-4 -4,-4s-4,1.794 -4,4s1.794,4 4,4s4,-1.794 4,-4z"/>
   </g>
  </g>
 </g>
</svg>